<svg xmlns="http://www.w3.org/2000/svg" width="1586.054" height="1190.97" viewBox="0 0 1586.054 1190.97">
  <g id="shop" transform="translate(-2 -2)">
    <g id="shop-2" data-name="shop" transform="translate(2 2)">
      <path id="Path_218" data-name="Path 218" d="M28.72,18H23.69l-2.25,6h5.78Z" transform="translate(560.718 333.102)" fill="#fffefe"/>
      <path id="Path_219" data-name="Path 219" d="M30.78,18l-1.5,6h5.44l-1.5-6Z" transform="translate(761.027 333.102)" fill="#fffefe"/>
      <path id="Path_220" data-name="Path 220" d="M4.62,24h6.69l2.25-6H7.62Z" transform="translate(-2 333.102)" fill="#fffefe"/>
      <path id="Path_221" data-name="Path 221" d="M13,31a3,3,0,0,0,6,0V26H13Z" transform="translate(308.863 519.986)" fill="#fffefe"/>
      <path id="Path_222" data-name="Path 222" d="M29,31a3,3,0,0,0,6,0V26H29Z" transform="translate(761.027 519.986)" fill="#fffefe"/>
      <path id="Path_223" data-name="Path 223" d="M13.44,24h5.87l2.25-6H15.69Z" transform="translate(334.508 333.102)" fill="#fffefe"/>
      <path id="Path_224" data-name="Path 224" d="M37,31a3,3,0,0,0,6,0V26H37Z" transform="translate(987.109 519.986)" fill="#fffefe"/>
      <path id="Path_225" data-name="Path 225" d="M35.28,18l1.5,6h5.78l-2.25-6Z" transform="translate(961.336 333.102)" fill="#fffefe"/>
      <path id="Path_226" data-name="Path 226" d="M11,31V26H5v5a3,3,0,0,0,6,0Z" transform="translate(-2 519.986)" fill="#fffefe"/>
      <path id="Path_227" data-name="Path 227" d="M21,31a3,3,0,0,0,6,0V26H21Z" transform="translate(534.945 519.986)" fill="#fffefe"/>
      <path id="Path_228" data-name="Path 228" d="M53,31a3,3,0,0,0,6,0V26H53Z" transform="translate(1524.054 519.986)" fill="#fffefe"/>
      <path id="Path_229" data-name="Path 229" d="M42.44,18l2.25,6h5.87l-2.25-6Z" transform="translate(1187.545 333.102)" fill="#fffefe"/>
      <path id="Path_230" data-name="Path 230" d="M1588.054,8c0,3.314-71.01,6-158.605,6H1270.843v2H1112.238V14H477.816v2H319.211V14H160.605C73.01,14,2,11.314,2,8S73.01,2,160.605,2H1429.448C1517.044,2,1588.054,4.686,1588.054,8Z" transform="translate(-2 -2)" fill="#fffefe"/>
      <path id="Path_231" data-name="Path 231" d="M50.44,18l2.25,6h6.69l-3-6Z" transform="translate(1524.054 333.102)" fill="#fffefe"/>
      <path id="Path_232" data-name="Path 232" d="M48,34a3.009,3.009,0,0,0,3-3V26H45v5A3.009,3.009,0,0,0,48,34Z" transform="translate(1213.191 519.986)" fill="#fffefe"/>
      <path id="Path_233" data-name="Path 233" d="M12,42H34V54H12Z" transform="translate(399.593 1128.97)" fill="#fffefe"/>
      <path id="Path_234" data-name="Path 234" d="M1523.359,36c-47.928-.006-92.943-.759-121.389-2.03-28.323,1.276-73.417,2.03-121.389,2.03s-93.066-.754-121.389-2.03C1130.87,35.246,1085.776,36,1037.8,36s-93.066-.754-121.389-2.03C888.092,35.246,843,36,795.027,36s-93.066-.754-121.389-2.03C645.315,35.246,600.221,36,552.249,36s-93.066-.754-121.389-2.03C402.537,35.246,357.444,36,309.472,36s-93.066-.754-121.389-2.03C159.638,35.241,114.622,35.994,66.694,36,45.832,36,25.188,35.86,6,35.59V61c0,.552,13.587,1,30.347,1H1553.707c16.76,0,30.347-.448,30.347-1V35.59C1564.866,35.86,1544.222,36,1523.359,36ZM916.416,55c0,.552-13.587,1-30.347,1H157.736c-16.76,0-30.347-.448-30.347-1V41c0-.552,13.587-1,30.347-1H886.068c16.76,0,30.347.448,30.347,1Zm546.249,5h-60.694V48c0-3.314-81.521-6-182.083-6S1037.8,44.686,1037.8,48V60H977.11V48c0-4.418,108.7-8,242.777-8s242.777,3.582,242.777,8Z" transform="translate(-2 1128.97)" fill="#fffefe"/>
    </g>
  </g>
</svg>
