<?xml version="1.0"?>
<svg xmlns="http://www.w3.org/2000/svg" xmlns:xlink="http://www.w3.org/1999/xlink" xmlns:svgjs="http://svgjs.com/svgjs" version="1.1" width="512" height="512" x="0" y="0" viewBox="0 0 64 64" style="enable-background:new 0 0 512 512" xml:space="preserve" class=""><g><g xmlns="http://www.w3.org/2000/svg" id="shop"><path d="m28.72 18h-5.03l-2.25 6h5.78z" fill="#e91414" data-original="#000000" style="" class=""/><path d="m30.78 18-1.5 6h5.44l-1.5-6z" fill="#e91414" data-original="#000000" style="" class=""/><path d="m4.62 24h6.69l2.25-6h-5.94z" fill="#e91414" data-original="#000000" style="" class=""/><path d="m13 31a3 3 0 0 0 6 0v-5h-6z" fill="#e91414" data-original="#000000" style="" class=""/><path d="m29 31a3 3 0 0 0 6 0v-5h-6z" fill="#e91414" data-original="#000000" style="" class=""/><path d="m13.44 24h5.87l2.25-6h-5.87z" fill="#e91414" data-original="#000000" style="" class=""/><path d="m37 31a3 3 0 0 0 6 0v-5h-6z" fill="#e91414" data-original="#000000" style="" class=""/><path d="m35.28 18 1.5 6h5.78l-2.25-6z" fill="#e91414" data-original="#000000" style="" class=""/><path d="m11 31v-5h-6v5a3 3 0 0 0 6 0z" fill="#e91414" data-original="#000000" style="" class=""/><path d="m21 31a3 3 0 0 0 6 0v-5h-6z" fill="#e91414" data-original="#000000" style="" class=""/><path d="m53 31a3 3 0 0 0 6 0v-5h-6z" fill="#e91414" data-original="#000000" style="" class=""/><path d="m42.44 18 2.25 6h5.87l-2.25-6z" fill="#e91414" data-original="#000000" style="" class=""/><path d="m62 8a6 6 0 0 1 -6 6h-6v2h-6v-2h-24v2h-6v-2h-6a6 6 0 0 1 0-12h48a6 6 0 0 1 6 6z" fill="#e91414" data-original="#000000" style="" class=""/><path d="m50.44 18 2.25 6h6.69l-3-6z" fill="#e91414" data-original="#000000" style="" class=""/><path d="m48 34a3.009 3.009 0 0 0 3-3v-5h-6v5a3.009 3.009 0 0 0 3 3z" fill="#e91414" data-original="#000000" style="" class=""/><path d="m12 42h22v12h-22z" fill="#e91414" data-original="#000000" style="" class=""/><path d="m56 36a4.994 4.994 0 0 1 -4-2.03 4.956 4.956 0 0 1 -8 0 4.956 4.956 0 0 1 -8 0 4.956 4.956 0 0 1 -8 0 4.956 4.956 0 0 1 -8 0 4.956 4.956 0 0 1 -8 0 4.994 4.994 0 0 1 -4 2.03 5.106 5.106 0 0 1 -2-.41v25.41a1 1 0 0 0 1 1h50a1 1 0 0 0 1-1v-25.41a5.106 5.106 0 0 1 -2 .41zm-20 19a1 1 0 0 1 -1 1h-24a1 1 0 0 1 -1-1v-14a1 1 0 0 1 1-1h24a1 1 0 0 1 1 1zm18 5h-2v-12a6 6 0 0 0 -12 0v12h-2v-12a8 8 0 0 1 16 0z" fill="#e91414" data-original="#000000" style="" class=""/></g></g></svg>
